<svg width="171" height="459" viewBox="0 0 171 459" fill="none" xmlns="http://www.w3.org/2000/svg">
<path d="M85.3604 4.57715L89.9362 13.702L80.7845 13.702L85.3604 4.57715Z" fill="black"/>
<rect x="88.2427" y="12.8506" width="11.1931" height="5.2837" transform="rotate(90 88.2427 12.8506)" fill="black"/>
<path d="M85.3604 21.123L89.9362 30.2479L80.7845 30.2479L85.3604 21.123Z" fill="white"/>
<rect x="88.2424" y="29.3965" width="11.1931" height="5.2837" transform="rotate(90 88.2424 29.3965)" fill="white"/>
<path d="M85.3604 37.6699L89.9362 46.7947L80.7845 46.7947L85.3604 37.6699Z" fill="black"/>
<rect x="88.2424" y="45.9424" width="11.1931" height="5.2837" transform="rotate(90 88.2424 45.9424)" fill="black"/>
<path d="M85.3606 54.2158L89.9364 63.3406L80.7848 63.3406L85.3606 54.2158Z" fill="white"/>
<rect x="88.2424" y="62.4893" width="11.1931" height="5.2837" transform="rotate(90 88.2424 62.4893)" fill="white"/>
<path d="M85.3604 70.7627L89.9362 79.8875L80.7845 79.8875L85.3604 70.7627Z" fill="black"/>
<rect x="88.2424" y="79.0361" width="11.1931" height="5.2837" transform="rotate(90 88.2424 79.0361)" fill="black"/>
<path d="M85.3604 87.3086L89.9362 96.4334L80.7845 96.4334L85.3604 87.3086Z" fill="white"/>
<rect x="88.2424" y="95.582" width="11.1931" height="5.2837" transform="rotate(90 88.2424 95.582)" fill="white"/>
<path d="M85.3604 103.855L89.9362 112.98L80.7845 112.98L85.3604 103.855Z" fill="black"/>
<rect x="88.2424" y="112.128" width="11.1931" height="5.2837" transform="rotate(90 88.2424 112.128)" fill="black"/>
<path d="M85.3604 120.401L89.9362 129.526L80.7845 129.526L85.3604 120.401Z" fill="white"/>
<rect x="88.2424" y="128.675" width="11.1931" height="5.2837" transform="rotate(90 88.2424 128.675)" fill="white"/>
<path d="M85.3604 136.948L89.9362 146.073L80.7845 146.073L85.3604 136.948Z" fill="black"/>
<rect x="88.2424" y="145.221" width="11.1931" height="5.2837" transform="rotate(90 88.2424 145.221)" fill="black"/>
<path d="M85.3604 153.494L89.9362 162.619L80.7845 162.619L85.3604 153.494Z" fill="white"/>
<rect x="88.2424" y="161.768" width="11.1931" height="5.2837" transform="rotate(90 88.2424 161.768)" fill="white"/>
<path d="M85.3604 170.04L89.9362 179.165L80.7845 179.165L85.3604 170.04Z" fill="black"/>
<rect x="88.2424" y="178.313" width="11.1931" height="5.2837" transform="rotate(90 88.2424 178.313)" fill="black"/>
<path d="M85.7017 335.575L90.2775 344.7L81.1259 344.7L85.7017 335.575Z" fill="black"/>
<rect x="88.5837" y="343.849" width="11.1931" height="5.2837" transform="rotate(90 88.5837 343.849)" fill="black"/>
<path d="M85.7014 352.121L90.2772 361.246L81.1256 361.246L85.7014 352.121Z" fill="white"/>
<rect x="88.5837" y="360.395" width="11.1931" height="5.2837" transform="rotate(90 88.5837 360.395)" fill="white"/>
<path d="M85.7017 368.668L90.2775 377.793L81.1259 377.793L85.7017 368.668Z" fill="black"/>
<rect x="88.5837" y="376.94" width="11.1931" height="5.2837" transform="rotate(90 88.5837 376.94)" fill="black"/>
<path d="M85.7017 385.214L90.2775 394.339L81.1259 394.339L85.7017 385.214Z" fill="white"/>
<rect x="88.5837" y="393.487" width="11.1931" height="5.2837" transform="rotate(90 88.5837 393.487)" fill="white"/>
<path d="M85.7017 401.761L90.2775 410.886L81.1259 410.886L85.7017 401.761Z" fill="black"/>
<rect x="88.5837" y="410.034" width="11.1931" height="5.2837" transform="rotate(90 88.5837 410.034)" fill="black"/>
<path d="M85.7017 418.307L90.2775 427.431L81.1259 427.431L85.7017 418.307Z" fill="white"/>
<rect x="88.5837" y="426.58" width="11.1931" height="5.2837" transform="rotate(90 88.5837 426.58)" fill="white"/>
<path d="M85.7017 434.854L90.2775 443.978L81.1259 443.978L85.7017 434.854Z" fill="black"/>
<rect x="88.5837" y="443.126" width="11.1931" height="5.2837" transform="rotate(90 88.5837 443.126)" fill="black"/>
<path d="M85.3604 137.413L89.9362 146.538L80.7845 146.538L85.3604 137.413Z" fill="black"/>
<rect x="88.2427" y="145.687" width="11.1931" height="5.2837" transform="rotate(90 88.2427 145.687)" fill="black"/>
<path d="M85.3604 153.959L89.9362 163.084L80.7845 163.084L85.3604 153.959Z" fill="white"/>
<rect x="88.2424" y="162.232" width="11.1931" height="5.2837" transform="rotate(90 88.2424 162.232)" fill="white"/>
<path d="M85.3604 170.506L89.9362 179.631L80.7845 179.631L85.3604 170.506Z" fill="black"/>
<rect x="88.2424" y="178.778" width="11.1931" height="5.2837" transform="rotate(90 88.2424 178.778)" fill="black"/>
<path d="M85.3606 187.052L89.9364 196.177L80.7848 196.177L85.3606 187.052Z" fill="white"/>
<rect x="88.2424" y="195.325" width="11.1931" height="5.2837" transform="rotate(90 88.2424 195.325)" fill="white"/>
<path d="M85.3604 203.599L89.9362 212.723L80.7845 212.723L85.3604 203.599Z" fill="black"/>
<rect x="88.2424" y="211.872" width="11.1931" height="5.2837" transform="rotate(90 88.2424 211.872)" fill="black"/>
<path d="M85.3604 220.145L89.9362 229.269L80.7845 229.269L85.3604 220.145Z" fill="white"/>
<rect x="88.2424" y="228.418" width="11.1931" height="5.2837" transform="rotate(90 88.2424 228.418)" fill="white"/>
<path d="M85.3604 236.691L89.9362 245.816L80.7845 245.816L85.3604 236.691Z" fill="black"/>
<rect x="88.2424" y="244.964" width="11.1931" height="5.2837" transform="rotate(90 88.2424 244.964)" fill="black"/>
<path d="M85.3604 253.237L89.9362 262.362L80.7845 262.362L85.3604 253.237Z" fill="white"/>
<rect x="88.2424" y="261.511" width="11.1931" height="5.2837" transform="rotate(90 88.2424 261.511)" fill="white"/>
<path d="M85.3604 269.784L89.9362 278.909L80.7845 278.909L85.3604 269.784Z" fill="black"/>
<rect x="88.2424" y="278.057" width="11.1931" height="5.2837" transform="rotate(90 88.2424 278.057)" fill="black"/>
<path d="M85.3604 286.33L89.9362 295.455L80.7845 295.455L85.3604 286.33Z" fill="white"/>
<rect x="88.2424" y="294.604" width="11.1931" height="5.2837" transform="rotate(90 88.2424 294.604)" fill="white"/>
<path d="M85.3604 302.876L89.9362 312.001L80.7845 312.001L85.3604 302.876Z" fill="black"/>
<rect x="88.2424" y="311.149" width="11.1931" height="5.2837" transform="rotate(90 88.2424 311.149)" fill="black"/>
<path d="M85.3611 236.604L89.9369 245.728L80.7853 245.728L85.3611 236.604Z" fill="black"/>
<rect x="88.2432" y="244.877" width="11.1931" height="5.2837" transform="rotate(90 88.2432 244.877)" fill="black"/>
<path d="M85.3608 253.149L89.9367 262.274L80.785 262.274L85.3608 253.149Z" fill="white"/>
<rect x="88.2432" y="261.423" width="11.1931" height="5.2837" transform="rotate(90 88.2432 261.423)" fill="white"/>
<path d="M85.3611 269.696L89.9369 278.821L80.7853 278.821L85.3611 269.696Z" fill="black"/>
<rect x="88.2432" y="277.969" width="11.1931" height="5.2837" transform="rotate(90 88.2432 277.969)" fill="black"/>
<path d="M85.3611 286.242L89.9369 295.367L80.7853 295.367L85.3611 286.242Z" fill="white"/>
<rect x="88.2432" y="294.516" width="11.1931" height="5.2837" transform="rotate(90 88.2432 294.516)" fill="white"/>
<path d="M85.3611 302.789L89.9369 311.914L80.7853 311.914L85.3611 302.789Z" fill="black"/>
<rect x="88.2432" y="311.062" width="11.1931" height="5.2837" transform="rotate(90 88.2432 311.062)" fill="black"/>
<path d="M85.3611 319.335L89.9369 328.46L80.7853 328.46L85.3611 319.335Z" fill="white"/>
<rect x="88.2432" y="327.608" width="11.1931" height="5.2837" transform="rotate(90 88.2432 327.608)" fill="white"/>
<path d="M85.3611 335.882L89.9369 345.007L80.7853 345.007L85.3611 335.882Z" fill="black"/>
<rect x="88.2432" y="344.154" width="11.1931" height="5.2837" transform="rotate(90 88.2432 344.154)" fill="black"/>
</svg>
