<svg width="1739" height="22" viewBox="0 0 1739 22" fill="none" xmlns="http://www.w3.org/2000/svg">
<rect x="730.597" y="5" width="22.9864" height="11" fill="black"/>
<rect x="764.577" y="5" width="22.9864" height="11" fill="white"/>
<rect x="832.537" y="5" width="22.9864" height="11" fill="white"/>
<rect x="866.516" y="5" width="22.9864" height="11" fill="black"/>
<rect x="798.557" y="5" width="22.9864" height="11" fill="black"/>
<rect x="934.476" y="5" width="22.9864" height="11" fill="black"/>
<rect x="968.456" y="5" width="22.9864" height="11" fill="white"/>
<rect x="900.496" y="5" width="22.9864" height="11" fill="white"/>
<rect x="1036.42" y="5" width="22.9864" height="11" fill="white"/>
<rect x="1070.4" y="5" width="22.9864" height="11" fill="black"/>
<rect x="1002.44" y="5" width="22.9864" height="11" fill="black"/>
<rect x="1138.36" y="5" width="22.9864" height="11" fill="black"/>
<rect x="1172.34" y="5" width="22.9864" height="11" fill="white"/>
<rect x="1104.38" y="5" width="22.9864" height="11" fill="white"/>
<rect x="1240.3" y="5" width="22.9864" height="11" fill="white"/>
<rect x="1274.28" y="5" width="22.9864" height="11" fill="black"/>
<rect x="1206.32" y="5" width="22.9864" height="11" fill="black"/>
<rect x="1342.23" y="5" width="22.9864" height="11" fill="black"/>
<rect x="1376.21" y="5" width="22.9864" height="11" fill="white"/>
<rect x="1308.25" y="5" width="22.9864" height="11" fill="white"/>
<rect x="1444.17" y="5" width="22.9864" height="11" fill="white"/>
<rect x="1478.15" y="5" width="22.9864" height="11" fill="black"/>
<rect x="1410.19" y="5" width="22.9864" height="11" fill="black"/>
<path d="M713.607 11L732.346 1.47372L732.346 20.5263L713.607 11Z" fill="black"/>
<path d="M747.587 11L766.326 1.47372L766.326 20.5263L747.587 11Z" fill="white"/>
<path d="M781.567 11L800.306 1.47372L800.306 20.5263L781.567 11Z" fill="black"/>
<path d="M815.547 11L834.286 1.47372L834.286 20.5263L815.547 11Z" fill="white"/>
<path d="M849.526 11L868.265 1.47372L868.265 20.5263L849.526 11Z" fill="black"/>
<path d="M883.506 11L902.245 1.47372L902.245 20.5263L883.506 11Z" fill="white"/>
<path d="M917.486 11L936.225 1.47372L936.225 20.5263L917.486 11Z" fill="black"/>
<path d="M951.466 11L970.205 1.47372L970.205 20.5263L951.466 11Z" fill="white"/>
<path d="M985.446 11L1004.18 1.47372L1004.18 20.5263L985.446 11Z" fill="black"/>
<path d="M1019.43 11L1038.16 1.47372L1038.16 20.5263L1019.43 11Z" fill="white"/>
<path d="M1087.39 11L1106.12 1.47372L1106.12 20.5263L1087.39 11Z" fill="white"/>
<path d="M1121.37 11L1140.1 1.47372L1140.1 20.5263L1121.37 11Z" fill="black"/>
<path d="M1155.35 11L1174.08 1.47372L1174.08 20.5263L1155.35 11Z" fill="white"/>
<path d="M1189.33 11L1208.06 1.47372L1208.06 20.5263L1189.33 11Z" fill="black"/>
<path d="M1223.31 11L1242.04 1.47372L1242.04 20.5263L1223.31 11Z" fill="white"/>
<path d="M1257.29 11L1276.02 1.47372L1276.02 20.5263L1257.29 11Z" fill="black"/>
<path d="M1291.27 11L1310 1.47372L1310 20.5263L1291.27 11Z" fill="white"/>
<path d="M1325.24 11L1343.98 1.47372L1343.98 20.5263L1325.24 11Z" fill="black"/>
<path d="M1359.22 11L1377.96 1.47372L1377.96 20.5263L1359.22 11Z" fill="white"/>
<path d="M1393.2 11L1411.94 1.47372L1411.94 20.5263L1393.2 11Z" fill="black"/>
<path d="M1427.18 11L1445.92 1.47372L1445.92 20.5263L1427.18 11Z" fill="white"/>
<path d="M1461.16 11L1479.9 1.47372L1479.9 20.5263L1461.16 11Z" fill="black"/>
<path d="M1053.41 11L1072.14 1.47372L1072.14 20.5263L1053.41 11Z" fill="black"/>
<rect x="1002.44" y="5" width="22.9864" height="11" fill="black"/>
<rect x="1036.42" y="5" width="22.9864" height="11" fill="white"/>
<rect x="1104.38" y="5" width="22.9864" height="11" fill="white"/>
<rect x="1138.36" y="5" width="22.9864" height="11" fill="black"/>
<rect x="1070.4" y="5" width="22.9864" height="11" fill="black"/>
<rect x="1206.32" y="5" width="22.9864" height="11" fill="black"/>
<rect x="1240.3" y="5" width="22.9864" height="11" fill="white"/>
<rect x="1172.34" y="5" width="22.9864" height="11" fill="white"/>
<rect x="1308.26" y="5" width="22.9864" height="11" fill="white"/>
<rect x="1342.23" y="5" width="22.9864" height="11" fill="black"/>
<rect x="1274.28" y="5" width="22.9864" height="11" fill="black"/>
<rect x="1410.19" y="5" width="22.9864" height="11" fill="black"/>
<rect x="1444.17" y="5" width="22.9864" height="11" fill="white"/>
<rect x="1376.21" y="5" width="22.9864" height="11" fill="white"/>
<rect x="1512.13" y="5" width="22.9864" height="11" fill="white"/>
<rect x="1546.11" y="5" width="22.9864" height="11" fill="black"/>
<rect x="1478.15" y="5" width="22.9864" height="11" fill="black"/>
<rect x="1614.07" y="5" width="22.9864" height="11" fill="black"/>
<rect x="1648.05" y="5" width="22.9864" height="11" fill="white"/>
<rect x="1580.09" y="5" width="22.9864" height="11" fill="white"/>
<rect x="1716.01" y="5" width="22.9864" height="11" fill="white"/>
<rect x="1682.03" y="5" width="22.9864" height="11" fill="black"/>
<path d="M985.446 11L1004.19 1.47372L1004.19 20.5263L985.446 11Z" fill="black"/>
<path d="M1019.43 11L1038.16 1.47372L1038.16 20.5263L1019.43 11Z" fill="white"/>
<path d="M1053.41 11L1072.14 1.47372L1072.14 20.5263L1053.41 11Z" fill="black"/>
<path d="M1087.39 11L1106.12 1.47372L1106.12 20.5263L1087.39 11Z" fill="white"/>
<path d="M1121.37 11L1140.1 1.47372L1140.1 20.5263L1121.37 11Z" fill="black"/>
<path d="M1155.35 11L1174.08 1.47372L1174.08 20.5263L1155.35 11Z" fill="white"/>
<path d="M1189.33 11L1208.06 1.47372L1208.06 20.5263L1189.33 11Z" fill="black"/>
<path d="M1223.31 11L1242.04 1.47372L1242.04 20.5263L1223.31 11Z" fill="white"/>
<path d="M1257.29 11L1276.02 1.47372L1276.02 20.5263L1257.29 11Z" fill="black"/>
<path d="M1291.27 11L1310 1.47372L1310 20.5263L1291.27 11Z" fill="white"/>
<path d="M1359.22 11L1377.96 1.47372L1377.96 20.5263L1359.22 11Z" fill="white"/>
<path d="M1393.2 11L1411.94 1.47372L1411.94 20.5263L1393.2 11Z" fill="black"/>
<path d="M1427.18 11L1445.92 1.47372L1445.92 20.5263L1427.18 11Z" fill="white"/>
<path d="M1461.16 11L1479.9 1.47372L1479.9 20.5263L1461.16 11Z" fill="black"/>
<path d="M1495.14 11L1513.88 1.47372L1513.88 20.5263L1495.14 11Z" fill="white"/>
<path d="M1529.12 11L1547.86 1.47372L1547.86 20.5263L1529.12 11Z" fill="black"/>
<path d="M1563.1 11L1581.84 1.47372L1581.84 20.5263L1563.1 11Z" fill="white"/>
<path d="M1597.08 11L1615.82 1.47372L1615.82 20.5263L1597.08 11Z" fill="black"/>
<path d="M1631.06 11L1649.8 1.47372L1649.8 20.5263L1631.06 11Z" fill="white"/>
<path d="M1665.04 11L1683.78 1.47372L1683.78 20.5263L1665.04 11Z" fill="black"/>
<path d="M1699.02 11L1717.76 1.47372L1717.76 20.5263L1699.02 11Z" fill="white"/>
<path d="M1325.24 11L1343.98 1.47372L1343.98 20.5263L1325.24 11Z" fill="black"/>
<rect x="390.798" y="5" width="22.9864" height="11" fill="black"/>
<rect x="424.778" y="5" width="22.9864" height="11" fill="white"/>
<rect x="356.818" y="5" width="22.9864" height="11" fill="white"/>
<rect x="492.738" y="5" width="22.9864" height="11" fill="white"/>
<rect x="526.718" y="5" width="22.9864" height="11" fill="black"/>
<rect x="458.758" y="5" width="22.9864" height="11" fill="black"/>
<rect x="594.677" y="5" width="22.9864" height="11" fill="black"/>
<rect x="628.657" y="5" width="22.9864" height="11" fill="white"/>
<rect x="560.697" y="5" width="22.9864" height="11" fill="white"/>
<rect x="696.617" y="5" width="22.9864" height="11" fill="white"/>
<rect x="730.597" y="5" width="22.9864" height="11" fill="black"/>
<rect x="662.637" y="5" width="22.9864" height="11" fill="black"/>
<path d="M373.808 11L392.547 1.47372L392.547 20.5263L373.808 11Z" fill="black"/>
<path d="M407.788 11L426.527 1.47372L426.527 20.5263L407.788 11Z" fill="white"/>
<path d="M441.768 11L460.507 1.47372L460.507 20.5263L441.768 11Z" fill="black"/>
<path d="M475.748 11L494.487 1.47372L494.487 20.5263L475.748 11Z" fill="white"/>
<path d="M509.728 11L528.467 1.47372L528.467 20.5263L509.728 11Z" fill="black"/>
<path d="M543.708 11L562.446 1.47372L562.446 20.5263L543.708 11Z" fill="white"/>
<path d="M577.687 11L596.426 1.47372L596.426 20.5263L577.687 11Z" fill="black"/>
<path d="M611.667 11L630.406 1.47372L630.406 20.5263L611.667 11Z" fill="white"/>
<path d="M645.647 11L664.386 1.47372L664.386 20.5263L645.647 11Z" fill="black"/>
<path d="M679.627 11L698.366 1.47372L698.366 20.5263L679.627 11Z" fill="white"/>
<path d="M713.607 11L732.346 1.47372L732.346 20.5263L713.607 11Z" fill="black"/>
<rect x="696.617" y="5" width="22.9864" height="11" fill="white"/>
<rect x="730.597" y="5" width="22.9864" height="11" fill="black"/>
<rect x="662.637" y="5" width="22.9864" height="11" fill="black"/>
<path d="M373.808 11L392.547 1.47372L392.547 20.5263L373.808 11Z" fill="black"/>
<path d="M407.788 11L426.527 1.47372L426.527 20.5263L407.788 11Z" fill="white"/>
<path d="M441.768 11L460.507 1.47372L460.507 20.5263L441.768 11Z" fill="black"/>
<path d="M475.748 11L494.487 1.47372L494.487 20.5263L475.748 11Z" fill="white"/>
<path d="M509.728 11L528.467 1.47372L528.467 20.5263L509.728 11Z" fill="black"/>
<path d="M543.708 11L562.446 1.47372L562.446 20.5263L543.708 11Z" fill="white"/>
<path d="M577.687 11L596.426 1.47372L596.426 20.5263L577.687 11Z" fill="black"/>
<path d="M611.667 11L630.406 1.47372L630.406 20.5263L611.667 11Z" fill="white"/>
<path d="M645.647 11L664.386 1.47372L664.386 20.5263L645.647 11Z" fill="black"/>
<path d="M679.627 11L698.366 1.47372L698.366 20.5263L679.627 11Z" fill="white"/>
<path d="M713.607 11L732.346 1.47372L732.346 20.5263L713.607 11Z" fill="black"/>
<rect x="50.9991" y="5" width="22.9864" height="11" fill="black"/>
<rect x="84.9791" y="5" width="22.9864" height="11" fill="white"/>
<rect x="17.0193" y="5" width="22.9864" height="11" fill="white"/>
<rect x="152.939" y="5" width="22.9864" height="11" fill="white"/>
<rect x="186.919" y="5" width="22.9864" height="11" fill="black"/>
<rect x="118.959" y="5" width="22.9864" height="11" fill="black"/>
<rect x="254.878" y="5" width="22.9864" height="11" fill="black"/>
<rect x="288.858" y="5" width="22.9864" height="11" fill="white"/>
<rect x="220.899" y="5" width="22.9864" height="11" fill="white"/>
<rect x="356.818" y="5" width="22.9864" height="11" fill="white"/>
<rect x="390.798" y="5" width="22.9864" height="11" fill="black"/>
<rect x="322.838" y="5" width="22.9864" height="11" fill="black"/>
<path d="M34.0092 11L52.7481 1.47372L52.7481 20.5263L34.0092 11Z" fill="black"/>
<path d="M67.989 11L86.7279 1.47372L86.7279 20.5263L67.989 11Z" fill="white"/>
<path d="M101.969 11L120.708 1.47372L120.708 20.5263L101.969 11Z" fill="black"/>
<path d="M135.949 11L154.688 1.47372L154.688 20.5263L135.949 11Z" fill="white"/>
<path d="M169.929 11L188.668 1.47372L188.668 20.5263L169.929 11Z" fill="black"/>
<path d="M203.909 11L222.648 1.47372L222.648 20.5263L203.909 11Z" fill="white"/>
<path d="M237.889 11L256.627 1.47372L256.627 20.5263L237.889 11Z" fill="black"/>
<path d="M271.868 11L290.607 1.47372L290.607 20.5263L271.868 11Z" fill="white"/>
<path d="M305.848 11L324.587 1.47372L324.587 20.5263L305.848 11Z" fill="black"/>
<path d="M339.828 11L358.567 1.47372L358.567 20.5263L339.828 11Z" fill="white"/>
<path d="M373.808 11L392.547 1.47372L392.547 20.5263L373.808 11Z" fill="black"/>
<rect x="356.818" y="5" width="22.9864" height="11" fill="white"/>
<rect x="390.798" y="5" width="22.9864" height="11" fill="black"/>
<rect x="322.838" y="5" width="22.9864" height="11" fill="black"/>
<path d="M34.0092 11L52.7481 1.47372L52.7481 20.5263L34.0092 11Z" fill="black"/>
<path d="M67.989 11L86.7279 1.47372L86.7279 20.5263L67.989 11Z" fill="white"/>
<path d="M-4.79997e-07 11L18.7389 1.47372L18.7389 20.5263L-4.79997e-07 11Z" fill="white"/>
<path d="M101.969 11L120.708 1.47372L120.708 20.5263L101.969 11Z" fill="black"/>
<path d="M135.949 11L154.688 1.47372L154.688 20.5263L135.949 11Z" fill="white"/>
<path d="M169.929 11L188.668 1.47372L188.668 20.5263L169.929 11Z" fill="black"/>
<path d="M203.909 11L222.648 1.47372L222.648 20.5263L203.909 11Z" fill="white"/>
<path d="M237.889 11L256.627 1.47372L256.627 20.5263L237.889 11Z" fill="black"/>
<path d="M271.868 11L290.607 1.47372L290.607 20.5263L271.868 11Z" fill="white"/>
<path d="M305.848 11L324.587 1.47372L324.587 20.5263L305.848 11Z" fill="black"/>
<path d="M339.828 11L358.567 1.47372L358.567 20.5263L339.828 11Z" fill="white"/>
<path d="M373.808 11L392.547 1.47372L392.547 20.5263L373.808 11Z" fill="black"/>
</svg>
