<svg width="1739" height="22" viewBox="0 0 1739 22" fill="none" xmlns="http://www.w3.org/2000/svg">
<rect x="1121" y="6" width="23" height="11" fill="white"/>
<rect x="1155" y="6" width="23" height="11" fill="black"/>
<rect x="1087" y="6" width="23" height="11" fill="black"/>
<rect x="1223" y="6" width="23" height="11" fill="black"/>
<rect x="1257" y="6" width="23" height="11" fill="white"/>
<rect x="1189" y="6" width="23" height="11" fill="white"/>
<rect x="1325" y="6" width="23" height="11" fill="white"/>
<rect x="1359" y="6" width="23" height="11" fill="black"/>
<rect x="1291" y="6" width="23" height="11" fill="black"/>
<rect x="1427" y="6" width="23" height="11" fill="black"/>
<rect x="1461" y="6" width="23" height="11" fill="white"/>
<rect x="1393" y="6" width="23" height="11" fill="white"/>
<rect x="1529" y="6" width="23" height="11" fill="white"/>
<rect x="1563" y="6" width="23" height="11" fill="black"/>
<rect x="1495" y="6" width="23" height="11" fill="black"/>
<rect x="1631" y="6" width="23" height="11" fill="black"/>
<rect x="1665" y="6" width="23" height="11" fill="white"/>
<rect x="1597" y="6" width="23" height="11" fill="white"/>
<rect x="1699" y="6" width="23" height="11" fill="black"/>
<path d="M1127 11L1108.25 20.5263L1108.25 1.47372L1127 11Z" fill="black"/>
<path d="M1161 11L1142.25 20.5263L1142.25 1.47372L1161 11Z" fill="white"/>
<path d="M1195 11L1176.25 20.5263L1176.25 1.47372L1195 11Z" fill="black"/>
<path d="M1229 11L1210.25 20.5263L1210.25 1.47372L1229 11Z" fill="white"/>
<path d="M1263 11L1244.25 20.5263L1244.25 1.47372L1263 11Z" fill="black"/>
<path d="M1297 11L1278.25 20.5263L1278.25 1.47372L1297 11Z" fill="white"/>
<path d="M1331 11L1312.25 20.5263L1312.25 1.47372L1331 11Z" fill="black"/>
<path d="M1365 11L1346.25 20.5263L1346.25 1.47372L1365 11Z" fill="white"/>
<path d="M1399 11L1380.25 20.5263L1380.25 1.47372L1399 11Z" fill="black"/>
<path d="M1433 11L1414.25 20.5263L1414.25 1.47372L1433 11Z" fill="white"/>
<path d="M1467 11L1448.25 20.5263L1448.25 1.47372L1467 11Z" fill="black"/>
<path d="M1501 11L1482.25 20.5263L1482.25 1.47372L1501 11Z" fill="white"/>
<path d="M1535 11L1516.25 20.5263L1516.25 1.47372L1535 11Z" fill="black"/>
<path d="M1569 11L1550.25 20.5263L1550.25 1.47372L1569 11Z" fill="white"/>
<path d="M1603 11L1584.25 20.5263L1584.25 1.47372L1603 11Z" fill="black"/>
<path d="M1637 11L1618.25 20.5263L1618.25 1.47372L1637 11Z" fill="white"/>
<path d="M1671 11L1652.25 20.5263L1652.25 1.47372L1671 11Z" fill="black"/>
<path d="M1705 11L1686.25 20.5263L1686.25 1.47372L1705 11Z" fill="white"/>
<path d="M1739 11L1720.25 20.5263L1720.25 1.47372L1739 11Z" fill="black"/>
<rect x="373" y="6" width="23" height="11" fill="white"/>
<rect x="407" y="6" width="23" height="11" fill="black"/>
<rect x="339" y="6" width="23" height="11" fill="black"/>
<rect x="475" y="6" width="23" height="11" fill="black"/>
<rect x="509" y="6" width="23" height="11" fill="white"/>
<rect x="441" y="6" width="23" height="11" fill="white"/>
<rect x="577" y="6" width="23" height="11" fill="white"/>
<rect x="611" y="6" width="23" height="11" fill="black"/>
<rect x="543" y="6" width="23" height="11" fill="black"/>
<rect x="679" y="6" width="23" height="11" fill="black"/>
<rect x="713" y="6" width="23" height="11" fill="white"/>
<rect x="645" y="6" width="23" height="11" fill="white"/>
<rect x="781" y="6" width="23" height="11" fill="white"/>
<rect x="815" y="6" width="23" height="11" fill="black"/>
<rect x="747" y="6" width="23" height="11" fill="black"/>
<rect x="883" y="6" width="23" height="11" fill="black"/>
<rect x="917" y="6" width="23" height="11" fill="white"/>
<rect x="849" y="6" width="23" height="11" fill="white"/>
<rect x="985" y="6" width="23" height="11" fill="white"/>
<rect x="1019" y="6" width="23" height="11" fill="black"/>
<rect x="951" y="6" width="23" height="11" fill="black"/>
<rect x="1087" y="6" width="23" height="11" fill="black"/>
<rect x="1121" y="6" width="23" height="11" fill="white"/>
<rect x="1053" y="6" width="23" height="11" fill="white"/>
<path d="M379 11L360.25 20.5263L360.25 1.47372L379 11Z" fill="black"/>
<path d="M413 11L394.25 20.5263L394.25 1.47372L413 11Z" fill="white"/>
<path d="M447 11L428.25 20.5263L428.25 1.47372L447 11Z" fill="black"/>
<path d="M481 11L462.25 20.5263L462.25 1.47372L481 11Z" fill="white"/>
<path d="M515 11L496.25 20.5263L496.25 1.47372L515 11Z" fill="black"/>
<path d="M549 11L530.25 20.5263L530.25 1.47372L549 11Z" fill="white"/>
<path d="M583 11L564.25 20.5263L564.25 1.47372L583 11Z" fill="black"/>
<path d="M617 11L598.25 20.5263L598.25 1.47372L617 11Z" fill="white"/>
<path d="M651 11L632.25 20.5263L632.25 1.47372L651 11Z" fill="black"/>
<path d="M685 11L666.25 20.5263L666.25 1.47372L685 11Z" fill="white"/>
<path d="M719 11L700.25 20.5263L700.25 1.47372L719 11Z" fill="black"/>
<path d="M753 11L734.25 20.5263L734.25 1.47372L753 11Z" fill="white"/>
<path d="M787 11L768.25 20.5263L768.25 1.47372L787 11Z" fill="black"/>
<path d="M821 11L802.25 20.5263L802.25 1.47372L821 11Z" fill="white"/>
<path d="M855 11L836.25 20.5263L836.25 1.47372L855 11Z" fill="black"/>
<path d="M889 11L870.25 20.5263L870.25 1.47372L889 11Z" fill="white"/>
<path d="M923 11L904.25 20.5263L904.25 1.47372L923 11Z" fill="black"/>
<path d="M957 11L938.25 20.5263L938.25 1.47372L957 11Z" fill="white"/>
<path d="M991 11L972.25 20.5263L972.25 1.47372L991 11Z" fill="black"/>
<path d="M1025 11L1006.25 20.5263L1006.25 1.47372L1025 11Z" fill="white"/>
<path d="M1059 11L1040.25 20.5263L1040.25 1.47372L1059 11Z" fill="black"/>
<path d="M1093 11L1074.25 20.5263L1074.25 1.47372L1093 11Z" fill="white"/>
<path d="M1127 11L1108.25 20.5263L1108.25 1.47372L1127 11Z" fill="black"/>
<rect x="34" y="6" width="23" height="11" fill="white"/>
<rect x="68" y="6" width="23" height="11" fill="black"/>
<rect y="6" width="23" height="11" fill="black"/>
<rect x="136" y="6" width="23" height="11" fill="black"/>
<rect x="170" y="6" width="23" height="11" fill="white"/>
<rect x="102" y="6" width="23" height="11" fill="white"/>
<rect x="238" y="6" width="23" height="11" fill="white"/>
<rect x="272" y="6" width="23" height="11" fill="black"/>
<rect x="204" y="6" width="23" height="11" fill="black"/>
<rect x="340" y="6" width="23" height="11" fill="black"/>
<rect x="374" y="6" width="23" height="11" fill="white"/>
<rect x="306" y="6" width="23" height="11" fill="white"/>
<path d="M40 11L21.25 20.5263L21.25 1.47372L40 11Z" fill="black"/>
<path d="M74 11L55.25 20.5263L55.25 1.47372L74 11Z" fill="white"/>
<path d="M108 11L89.25 20.5263L89.25 1.47372L108 11Z" fill="black"/>
<path d="M142 11L123.25 20.5263L123.25 1.47372L142 11Z" fill="white"/>
<path d="M176 11L157.25 20.5263L157.25 1.47372L176 11Z" fill="black"/>
<path d="M210 11L191.25 20.5263L191.25 1.47372L210 11Z" fill="white"/>
<path d="M244 11L225.25 20.5263L225.25 1.47372L244 11Z" fill="black"/>
<path d="M278 11L259.25 20.5263L259.25 1.47372L278 11Z" fill="white"/>
<path d="M312 11L293.25 20.5263L293.25 1.47372L312 11Z" fill="black"/>
<path d="M346 11L327.25 20.5263L327.25 1.47372L346 11Z" fill="white"/>
<path d="M380 11L361.25 20.5263L361.25 1.47372L380 11Z" fill="black"/>
</svg>
