<svg width="522" height="9" viewBox="0 0 522 9" fill="none" xmlns="http://www.w3.org/2000/svg">
<path d="M232.002 4.69924L225.339 8.08555L225.339 1.31293L232.002 4.69924Z" fill="black"/>
<rect x="225.961" y="6.83203" width="8.17303" height="3.91018" transform="rotate(180 225.961 6.83203)" fill="black"/>
<path d="M219.92 4.69924L213.257 8.08555L213.257 1.31293L219.92 4.69924Z" fill="white"/>
<rect x="213.879" y="6.83203" width="8.17303" height="3.91018" transform="rotate(180 213.879 6.83203)" fill="white"/>
<path d="M207.838 4.69924L201.176 8.08555L201.176 1.31293L207.838 4.69924Z" fill="black"/>
<rect x="201.797" y="6.83203" width="8.17303" height="3.91018" transform="rotate(180 201.797 6.83203)" fill="black"/>
<path d="M195.757 4.69924L189.095 8.08555L189.095 1.31293L195.757 4.69924Z" fill="white"/>
<rect x="189.715" y="6.83203" width="8.17303" height="3.91018" transform="rotate(180 189.715 6.83203)" fill="white"/>
<path d="M183.675 4.69924L177.012 8.08555L177.012 1.31293L183.675 4.69924Z" fill="black"/>
<rect x="177.633" y="6.83203" width="8.17303" height="3.91018" transform="rotate(180 177.633 6.83203)" fill="black"/>
<path d="M171.593 4.69924L164.93 8.08555L164.93 1.31293L171.593 4.69924Z" fill="white"/>
<rect x="165.552" y="6.83203" width="8.17303" height="3.91018" transform="rotate(180 165.552 6.83203)" fill="white"/>
<path d="M159.511 4.69924L152.848 8.08555L152.848 1.31293L159.511 4.69924Z" fill="black"/>
<rect x="153.47" y="6.83203" width="8.17303" height="3.91018" transform="rotate(180 153.47 6.83203)" fill="black"/>
<path d="M147.429 4.69924L140.766 8.08555L140.766 1.31293L147.429 4.69924Z" fill="white"/>
<rect x="141.388" y="6.83203" width="8.17303" height="3.91018" transform="rotate(180 141.388 6.83203)" fill="white"/>
<path d="M135.347 4.69924L128.684 8.08555L128.684 1.31293L135.347 4.69924Z" fill="black"/>
<rect x="129.306" y="6.83203" width="8.17303" height="3.91018" transform="rotate(180 129.306 6.83203)" fill="black"/>
<path d="M123.265 4.69924L116.602 8.08555L116.602 1.31293L123.265 4.69924Z" fill="white"/>
<rect x="117.224" y="6.83203" width="8.17303" height="3.91018" transform="rotate(180 117.224 6.83203)" fill="white"/>
<path d="M111.184 4.69924L104.521 8.08555L104.521 1.31293L111.184 4.69924Z" fill="black"/>
<rect x="105.143" y="6.83203" width="8.17303" height="3.91018" transform="rotate(180 105.143 6.83203)" fill="black"/>
<path d="M99.4595 4.69924L92.7967 8.08555L92.7967 1.31293L99.4595 4.69924Z" fill="white"/>
<rect x="93.4185" y="6.83203" width="8.17303" height="3.91018" transform="rotate(180 93.4185 6.83203)" fill="white"/>
<path d="M87.3774 4.69924L80.7147 8.08555L80.7146 1.31293L87.3774 4.69924Z" fill="black"/>
<rect x="81.3359" y="6.83203" width="8.17303" height="3.91018" transform="rotate(180 81.3359 6.83203)" fill="black"/>
<path d="M75.2954 4.69924L68.6326 8.08555L68.6326 1.31293L75.2954 4.69924Z" fill="white"/>
<rect x="69.2544" y="6.83203" width="8.17303" height="3.91018" transform="rotate(180 69.2544 6.83203)" fill="white"/>
<path d="M63.2139 4.69924L56.5511 8.08555L56.5511 1.31293L63.2139 4.69924Z" fill="black"/>
<rect x="57.1729" y="6.83203" width="8.17303" height="3.91018" transform="rotate(180 57.1729 6.83203)" fill="black"/>
<path d="M50.4595 4.69924L43.7967 8.08555L43.7967 1.31293L50.4595 4.69924Z" fill="white"/>
<rect x="44.4185" y="6.83203" width="8.17303" height="3.91018" transform="rotate(180 44.4185 6.83203)" fill="white"/>
<path d="M38.3774 4.69924L31.7147 8.08555L31.7146 1.31293L38.3774 4.69924Z" fill="black"/>
<rect x="32.3359" y="6.83203" width="8.17303" height="3.91018" transform="rotate(180 32.3359 6.83203)" fill="black"/>
<path d="M26.2954 4.69924L19.6326 8.08555L19.6326 1.31293L26.2954 4.69924Z" fill="white"/>
<rect x="20.2544" y="6.83203" width="8.17303" height="3.91018" transform="rotate(180 20.2544 6.83203)" fill="white"/>
<path d="M14.2139 4.69924L7.55108 8.08555L7.55108 1.31293L14.2139 4.69924Z" fill="black"/>
<rect x="8.17285" y="6.83203" width="8.17303" height="3.91018" transform="rotate(180 8.17285 6.83203)" fill="black"/>
<rect x="154.303" y="6.83203" width="7.1001" height="3.91018" transform="rotate(180 154.303 6.83203)" fill="black"/>
<path d="M328.718 4.69924L322.055 8.08555L322.055 1.31293L328.718 4.69924Z" fill="black"/>
<rect x="322.677" y="6.83203" width="8.17303" height="3.91018" transform="rotate(180 322.677 6.83203)" fill="black"/>
<path d="M316.636 4.69924L309.973 8.08555L309.973 1.31293L316.636 4.69924Z" fill="white"/>
<rect x="310.595" y="6.83203" width="8.17303" height="3.91018" transform="rotate(180 310.595 6.83203)" fill="white"/>
<path d="M304.554 4.69924L297.891 8.08555L297.891 1.31293L304.554 4.69924Z" fill="black"/>
<rect x="298.513" y="6.83203" width="8.17303" height="3.91018" transform="rotate(180 298.513 6.83203)" fill="black"/>
<path d="M292.472 4.69924L285.809 8.08555L285.809 1.31293L292.472 4.69924Z" fill="white"/>
<rect x="286.431" y="6.83203" width="8.17303" height="3.91018" transform="rotate(180 286.431 6.83203)" fill="white"/>
<path d="M280.391 4.69924L273.728 8.08555L273.728 1.31293L280.391 4.69924Z" fill="black"/>
<rect x="274.35" y="6.83203" width="8.17303" height="3.91018" transform="rotate(180 274.35 6.83203)" fill="black"/>
<path d="M268.309 4.69924L261.646 8.08555L261.646 1.31293L268.309 4.69924Z" fill="white"/>
<rect x="262.268" y="6.83203" width="8.17303" height="3.91018" transform="rotate(180 262.268 6.83203)" fill="white"/>
<path d="M256.227 4.69924L249.564 8.08555L249.564 1.31293L256.227 4.69924Z" fill="black"/>
<rect x="250.186" y="6.83203" width="8.17303" height="3.91018" transform="rotate(180 250.186 6.83203)" fill="black"/>
<path d="M244.145 4.69924L237.482 8.08555L237.482 1.31293L244.145 4.69924Z" fill="white"/>
<rect x="238.104" y="6.83203" width="8.17303" height="3.91018" transform="rotate(180 238.104 6.83203)" fill="white"/>
<path d="M232.063 4.69924L225.4 8.08555L225.4 1.31293L232.063 4.69924Z" fill="black"/>
<rect x="226.022" y="6.83203" width="8.17303" height="3.91018" transform="rotate(180 226.022 6.83203)" fill="black"/>
<path d="M219.981 4.69924L213.318 8.08555L213.318 1.31293L219.981 4.69924Z" fill="white"/>
<rect x="213.94" y="6.83203" width="8.17303" height="3.91018" transform="rotate(180 213.94 6.83203)" fill="white"/>
<path d="M207.899 4.69924L201.237 8.08555L201.237 1.31293L207.899 4.69924Z" fill="black"/>
<rect x="201.858" y="6.83203" width="8.17303" height="3.91018" transform="rotate(180 201.858 6.83203)" fill="black"/>
<path d="M425.445 4.69924L418.782 8.08555L418.782 1.31293L425.445 4.69924Z" fill="black"/>
<rect x="419.403" y="6.83203" width="8.17303" height="3.91018" transform="rotate(180 419.403 6.83203)" fill="black"/>
<path d="M413.363 4.69924L406.7 8.08555L406.7 1.31293L413.363 4.69924Z" fill="white"/>
<rect x="407.321" y="6.83203" width="8.17303" height="3.91018" transform="rotate(180 407.321 6.83203)" fill="white"/>
<path d="M401.281 4.69924L394.618 8.08555L394.618 1.31293L401.281 4.69924Z" fill="black"/>
<rect x="395.24" y="6.83203" width="8.17303" height="3.91018" transform="rotate(180 395.24 6.83203)" fill="black"/>
<path d="M389.199 4.69924L382.536 8.08555L382.536 1.31293L389.199 4.69924Z" fill="white"/>
<rect x="383.158" y="6.83203" width="8.17303" height="3.91018" transform="rotate(180 383.158 6.83203)" fill="white"/>
<path d="M377.117 4.69924L370.454 8.08555L370.454 1.31293L377.117 4.69924Z" fill="black"/>
<rect x="371.077" y="6.83203" width="8.17303" height="3.91018" transform="rotate(180 371.077 6.83203)" fill="black"/>
<path d="M365.035 4.69924L358.372 8.08555L358.372 1.31293L365.035 4.69924Z" fill="white"/>
<rect x="358.994" y="6.83203" width="8.17303" height="3.91018" transform="rotate(180 358.994 6.83203)" fill="white"/>
<path d="M352.954 4.69924L346.291 8.08555L346.291 1.31293L352.954 4.69924Z" fill="black"/>
<rect x="346.912" y="6.83203" width="8.17303" height="3.91018" transform="rotate(180 346.912 6.83203)" fill="black"/>
<path d="M340.872 4.69924L334.209 8.08555L334.209 1.31293L340.872 4.69924Z" fill="white"/>
<rect x="334.831" y="6.83203" width="8.17303" height="3.91018" transform="rotate(180 334.831 6.83203)" fill="white"/>
<path d="M328.79 4.69924L322.127 8.08555L322.127 1.31293L328.79 4.69924Z" fill="black"/>
<rect x="322.749" y="6.83203" width="8.17303" height="3.91018" transform="rotate(180 322.749 6.83203)" fill="black"/>
<path d="M521.869 4.69924L515.206 8.08555L515.206 1.31293L521.869 4.69924Z" fill="black"/>
<rect x="515.827" y="6.83203" width="8.17303" height="3.91018" transform="rotate(180 515.827 6.83203)" fill="black"/>
<path d="M509.787 4.69924L503.124 8.08555L503.124 1.31293L509.787 4.69924Z" fill="white"/>
<rect x="503.745" y="6.83203" width="8.17303" height="3.91018" transform="rotate(180 503.745 6.83203)" fill="white"/>
<path d="M497.705 4.69924L491.042 8.08555L491.042 1.31293L497.705 4.69924Z" fill="black"/>
<rect x="491.664" y="6.83203" width="8.17303" height="3.91018" transform="rotate(180 491.664 6.83203)" fill="black"/>
<path d="M485.623 4.69924L478.96 8.08555L478.96 1.31293L485.623 4.69924Z" fill="white"/>
<rect x="479.582" y="6.83203" width="8.17303" height="3.91018" transform="rotate(180 479.582 6.83203)" fill="white"/>
<path d="M473.541 4.69924L466.878 8.08555L466.878 1.31293L473.541 4.69924Z" fill="black"/>
<rect x="467.5" y="6.83203" width="8.17303" height="3.91018" transform="rotate(180 467.5 6.83203)" fill="black"/>
<path d="M461.458 4.69924L454.796 8.08555L454.796 1.31293L461.458 4.69924Z" fill="white"/>
<rect x="455.418" y="6.83203" width="8.17303" height="3.91018" transform="rotate(180 455.418 6.83203)" fill="white"/>
<path d="M449.377 4.69924L442.715 8.08555L442.715 1.31293L449.377 4.69924Z" fill="black"/>
<rect x="443.336" y="6.83203" width="8.17303" height="3.91018" transform="rotate(180 443.336 6.83203)" fill="black"/>
<path d="M437.296 4.69924L430.633 8.08555L430.633 1.31293L437.296 4.69924Z" fill="white"/>
<rect x="431.255" y="6.83203" width="8.17303" height="3.91018" transform="rotate(180 431.255 6.83203)" fill="white"/>
<path d="M425.213 4.69924L418.551 8.08555L418.551 1.31293L425.213 4.69924Z" fill="black"/>
<rect x="419.173" y="6.83203" width="8.17303" height="3.91018" transform="rotate(180 419.173 6.83203)" fill="black"/>
</svg>
