<svg width="416" height="749" viewBox="0 0 416 749" fill="none" xmlns="http://www.w3.org/2000/svg">
<path d="M208.21 10.0226L217.736 29.0193L198.683 29.0193L208.21 10.0226Z" fill="black"/>
<rect x="214.21" y="27.2462" width="23.3026" height="11" transform="rotate(90 214.21 27.2462)" fill="black"/>
<path d="M208.209 44.4701L217.736 63.4668L198.683 63.4668L208.209 44.4701Z" fill="white"/>
<rect x="214.21" y="61.6937" width="23.3026" height="11" transform="rotate(90 214.21 61.6937)" fill="white"/>
<path d="M208.209 78.9175L217.736 97.9142L198.683 97.9142L208.209 78.9175Z" fill="black"/>
<rect x="214.21" y="96.141" width="23.3026" height="11" transform="rotate(90 214.21 96.141)" fill="black"/>
<path d="M208.21 113.365L217.736 132.361L198.683 132.361L208.21 113.365Z" fill="white"/>
<rect x="214.21" y="130.589" width="23.3026" height="11" transform="rotate(90 214.21 130.589)" fill="white"/>
<path d="M208.21 147.812L217.736 166.809L198.683 166.809L208.21 147.812Z" fill="black"/>
<rect x="214.21" y="165.036" width="23.3026" height="11" transform="rotate(90 214.21 165.036)" fill="black"/>
<path d="M208.209 182.259L217.736 201.256L198.683 201.256L208.209 182.259Z" fill="white"/>
<rect x="214.21" y="199.483" width="23.3026" height="11" transform="rotate(90 214.21 199.483)" fill="white"/>
<path d="M208.21 216.707L217.736 235.704L198.683 235.704L208.21 216.707Z" fill="black"/>
<rect x="214.21" y="233.93" width="23.3026" height="11" transform="rotate(90 214.21 233.93)" fill="black"/>
<path d="M208.209 251.154L217.736 270.151L198.683 270.151L208.209 251.154Z" fill="white"/>
<rect x="214.21" y="268.378" width="23.3026" height="11" transform="rotate(90 214.21 268.378)" fill="white"/>
<path d="M208.21 285.602L217.736 304.598L198.684 304.598L208.21 285.602Z" fill="black"/>
<rect x="214.21" y="302.825" width="23.3026" height="11" transform="rotate(90 214.21 302.825)" fill="black"/>
<path d="M208.209 320.049L217.736 339.046L198.683 339.046L208.209 320.049Z" fill="white"/>
<rect x="214.21" y="337.273" width="23.3026" height="11" transform="rotate(90 214.21 337.273)" fill="white"/>
<path d="M208.21 354.496L217.736 373.493L198.683 373.493L208.21 354.496Z" fill="black"/>
<rect x="214.21" y="371.72" width="23.3026" height="11" transform="rotate(90 214.21 371.72)" fill="black"/>
<path d="M208.211 285.526L217.737 304.523L198.685 304.523L208.211 285.526Z" fill="black"/>
<rect x="214.211" y="302.75" width="23.3026" height="11" transform="rotate(90 214.211 302.75)" fill="black"/>
<path d="M208.211 319.974L217.737 338.971L198.684 338.971L208.211 319.974Z" fill="white"/>
<rect x="214.211" y="337.198" width="23.3026" height="11" transform="rotate(90 214.211 337.198)" fill="white"/>
<path d="M208.211 354.421L217.737 373.418L198.684 373.418L208.211 354.421Z" fill="black"/>
<rect x="214.211" y="371.645" width="23.3026" height="11" transform="rotate(90 214.211 371.645)" fill="black"/>
<path d="M208.211 388.868L217.737 407.865L198.685 407.865L208.211 388.868Z" fill="white"/>
<rect x="214.211" y="406.093" width="23.3026" height="11" transform="rotate(90 214.211 406.093)" fill="white"/>
<path d="M208.211 423.316L217.737 442.313L198.685 442.313L208.211 423.316Z" fill="black"/>
<rect x="214.211" y="440.54" width="23.3026" height="11" transform="rotate(90 214.211 440.54)" fill="black"/>
<path d="M208.211 457.763L217.737 476.76L198.684 476.76L208.211 457.763Z" fill="white"/>
<rect x="214.211" y="474.987" width="23.3026" height="11" transform="rotate(90 214.211 474.987)" fill="white"/>
<path d="M208.211 492.211L217.737 511.207L198.685 511.207L208.211 492.211Z" fill="black"/>
<rect x="214.211" y="509.434" width="23.3026" height="11" transform="rotate(90 214.211 509.434)" fill="black"/>
<path d="M208.211 526.658L217.737 545.654L198.684 545.654L208.211 526.658Z" fill="white"/>
<rect x="214.211" y="543.882" width="23.3026" height="11" transform="rotate(90 214.211 543.882)" fill="white"/>
<path d="M208.211 561.105L217.737 580.102L198.685 580.102L208.211 561.105Z" fill="black"/>
<rect x="214.211" y="578.329" width="23.3026" height="11" transform="rotate(90 214.211 578.329)" fill="black"/>
<path d="M208.211 595.553L217.737 614.549L198.684 614.549L208.211 595.553Z" fill="white"/>
<rect x="214.211" y="612.776" width="23.3026" height="11" transform="rotate(90 214.211 612.776)" fill="white"/>
<path d="M208.211 630L217.737 648.997L198.685 648.997L208.211 630Z" fill="black"/>
<rect x="214.211" y="647.224" width="23.3026" height="11" transform="rotate(90 214.211 647.224)" fill="black"/>
<path d="M208.21 354.001L217.736 372.998L198.683 372.998L208.21 354.001Z" fill="black"/>
<rect x="214.21" y="371.225" width="23.3026" height="11" transform="rotate(90 214.21 371.225)" fill="black"/>
<path d="M208.209 388.449L217.736 407.445L198.683 407.445L208.209 388.449Z" fill="white"/>
<rect x="214.21" y="405.672" width="23.3026" height="11" transform="rotate(90 214.21 405.672)" fill="white"/>
<path d="M208.209 422.896L217.736 441.893L198.683 441.893L208.209 422.896Z" fill="black"/>
<rect x="214.21" y="440.12" width="23.3026" height="11" transform="rotate(90 214.21 440.12)" fill="black"/>
<path d="M208.21 457.343L217.736 476.34L198.683 476.34L208.21 457.343Z" fill="white"/>
<rect x="214.21" y="474.567" width="23.3026" height="11" transform="rotate(90 214.21 474.567)" fill="white"/>
<path d="M208.21 491.791L217.736 510.787L198.683 510.787L208.21 491.791Z" fill="black"/>
<rect x="214.21" y="509.014" width="23.3026" height="11" transform="rotate(90 214.21 509.014)" fill="black"/>
<path d="M208.209 526.238L217.736 545.235L198.683 545.235L208.209 526.238Z" fill="white"/>
<rect x="214.21" y="543.462" width="23.3026" height="11" transform="rotate(90 214.21 543.462)" fill="white"/>
<path d="M208.21 560.686L217.736 579.682L198.683 579.682L208.21 560.686Z" fill="black"/>
<rect x="214.21" y="577.909" width="23.3026" height="11" transform="rotate(90 214.21 577.909)" fill="black"/>
<path d="M208.209 595.133L217.736 614.129L198.683 614.129L208.209 595.133Z" fill="white"/>
<rect x="214.21" y="612.357" width="23.3026" height="11" transform="rotate(90 214.21 612.357)" fill="white"/>
<path d="M208.21 629.58L217.736 648.577L198.684 648.577L208.21 629.58Z" fill="black"/>
<rect x="214.21" y="646.804" width="23.3026" height="11" transform="rotate(90 214.21 646.804)" fill="black"/>
<path d="M208.209 664.028L217.736 683.024L198.683 683.024L208.209 664.028Z" fill="white"/>
<rect x="214.21" y="681.251" width="23.3026" height="11" transform="rotate(90 214.21 681.251)" fill="white"/>
<path d="M208.21 698.475L217.736 717.472L198.683 717.472L208.21 698.475Z" fill="black"/>
<rect x="214.21" y="715.699" width="23.3026" height="11" transform="rotate(90 214.21 715.699)" fill="black"/>
</svg>
