<svg width="171" height="459" viewBox="0 0 171 459" fill="none" xmlns="http://www.w3.org/2000/svg">
<path d="M85.3608 4.58105L89.9367 13.7059L80.785 13.7059L85.3608 4.58105Z" fill="black"/>
<rect x="88.2427" y="12.8545" width="11.1931" height="5.2837" transform="rotate(90 88.2427 12.8545)" fill="black"/>
<path d="M85.3608 21.127L89.9367 30.2518L80.785 30.2518L85.3608 21.127Z" fill="white"/>
<rect x="88.2427" y="29.4004" width="11.1931" height="5.2837" transform="rotate(90 88.2427 29.4004)" fill="white"/>
<path d="M85.3608 37.6738L89.9367 46.7986L80.785 46.7986L85.3608 37.6738Z" fill="black"/>
<rect x="88.2427" y="45.9463" width="11.1931" height="5.2837" transform="rotate(90 88.2427 45.9463)" fill="black"/>
<path d="M85.3608 54.2197L89.9367 63.3445L80.785 63.3445L85.3608 54.2197Z" fill="white"/>
<rect x="88.2427" y="62.4932" width="11.1931" height="5.2837" transform="rotate(90 88.2427 62.4932)" fill="white"/>
<path d="M85.3608 70.7666L89.9367 79.8914L80.785 79.8914L85.3608 70.7666Z" fill="black"/>
<rect x="88.2427" y="79.04" width="11.1931" height="5.2837" transform="rotate(90 88.2427 79.04)" fill="black"/>
<path d="M85.3608 87.3125L89.9367 96.4373L80.785 96.4373L85.3608 87.3125Z" fill="white"/>
<rect x="88.2427" y="95.5859" width="11.1931" height="5.2837" transform="rotate(90 88.2427 95.5859)" fill="white"/>
<path d="M85.3608 103.859L89.9367 112.984L80.785 112.984L85.3608 103.859Z" fill="black"/>
<rect x="88.2427" y="112.132" width="11.1931" height="5.2837" transform="rotate(90 88.2427 112.132)" fill="black"/>
<path d="M85.3608 120.405L89.9367 129.53L80.785 129.53L85.3608 120.405Z" fill="white"/>
<rect x="88.2427" y="128.679" width="11.1931" height="5.2837" transform="rotate(90 88.2427 128.679)" fill="white"/>
<path d="M85.3608 136.952L89.9367 146.077L80.785 146.077L85.3608 136.952Z" fill="black"/>
<rect x="88.2427" y="145.225" width="11.1931" height="5.2837" transform="rotate(90 88.2427 145.225)" fill="black"/>
<path d="M85.3608 153.498L89.9367 162.623L80.785 162.623L85.3608 153.498Z" fill="white"/>
<rect x="88.2427" y="161.771" width="11.1931" height="5.2837" transform="rotate(90 88.2427 161.771)" fill="white"/>
<path d="M85.3608 170.044L89.9367 179.169L80.785 179.169L85.3608 170.044Z" fill="black"/>
<rect x="88.2427" y="178.317" width="11.1931" height="5.2837" transform="rotate(90 88.2427 178.317)" fill="black"/>
<path d="M85.7017 335.579L90.2775 344.704L81.1259 344.704L85.7017 335.579Z" fill="black"/>
<rect x="88.5835" y="343.853" width="11.1931" height="5.2837" transform="rotate(90 88.5835 343.853)" fill="black"/>
<path d="M85.7017 352.125L90.2775 361.25L81.1259 361.25L85.7017 352.125Z" fill="white"/>
<rect x="88.584" y="360.398" width="11.1931" height="5.2837" transform="rotate(90 88.584 360.398)" fill="white"/>
<path d="M85.7017 368.672L90.2775 377.797L81.1259 377.797L85.7017 368.672Z" fill="black"/>
<rect x="88.5835" y="376.944" width="11.1931" height="5.2837" transform="rotate(90 88.5835 376.944)" fill="black"/>
<path d="M85.7017 385.218L90.2775 394.343L81.1259 394.343L85.7017 385.218Z" fill="white"/>
<rect x="88.5835" y="393.491" width="11.1931" height="5.2837" transform="rotate(90 88.5835 393.491)" fill="white"/>
<path d="M85.7017 401.765L90.2775 410.889L81.1259 410.889L85.7017 401.765Z" fill="black"/>
<rect x="88.5835" y="410.038" width="11.1931" height="5.2837" transform="rotate(90 88.5835 410.038)" fill="black"/>
<path d="M85.7017 418.311L90.2775 427.435L81.1259 427.435L85.7017 418.311Z" fill="white"/>
<rect x="88.5835" y="426.584" width="11.1931" height="5.2837" transform="rotate(90 88.5835 426.584)" fill="white"/>
<path d="M85.7017 434.857L90.2775 443.982L81.1259 443.982L85.7017 434.857Z" fill="black"/>
<rect x="88.5835" y="443.13" width="11.1931" height="5.2837" transform="rotate(90 88.5835 443.13)" fill="black"/>
<path d="M85.3608 137.417L89.9367 146.542L80.785 146.542L85.3608 137.417Z" fill="black"/>
<rect x="88.2427" y="145.69" width="11.1931" height="5.2837" transform="rotate(90 88.2427 145.69)" fill="black"/>
<path d="M85.3608 153.963L89.9367 163.088L80.785 163.088L85.3608 153.963Z" fill="white"/>
<rect x="88.2427" y="162.236" width="11.1931" height="5.2837" transform="rotate(90 88.2427 162.236)" fill="white"/>
<path d="M85.3608 170.51L89.9367 179.635L80.785 179.635L85.3608 170.51Z" fill="black"/>
<rect x="88.2427" y="178.782" width="11.1931" height="5.2837" transform="rotate(90 88.2427 178.782)" fill="black"/>
<path d="M85.3608 187.056L89.9367 196.18L80.785 196.18L85.3608 187.056Z" fill="white"/>
<rect x="88.2427" y="195.329" width="11.1931" height="5.2837" transform="rotate(90 88.2427 195.329)" fill="white"/>
<path d="M85.3608 203.603L89.9367 212.727L80.785 212.727L85.3608 203.603Z" fill="black"/>
<rect x="88.2427" y="211.876" width="11.1931" height="5.2837" transform="rotate(90 88.2427 211.876)" fill="black"/>
<path d="M85.3608 220.148L89.9367 229.273L80.785 229.273L85.3608 220.148Z" fill="white"/>
<rect x="88.2427" y="228.422" width="11.1931" height="5.2837" transform="rotate(90 88.2427 228.422)" fill="white"/>
<path d="M85.3608 236.695L89.9367 245.82L80.785 245.82L85.3608 236.695Z" fill="black"/>
<rect x="88.2427" y="244.968" width="11.1931" height="5.2837" transform="rotate(90 88.2427 244.968)" fill="black"/>
<path d="M85.3608 253.241L89.9367 262.366L80.785 262.366L85.3608 253.241Z" fill="white"/>
<rect x="88.2427" y="261.515" width="11.1931" height="5.2837" transform="rotate(90 88.2427 261.515)" fill="white"/>
<path d="M85.3608 269.788L89.9367 278.913L80.785 278.913L85.3608 269.788Z" fill="black"/>
<rect x="88.2427" y="278.061" width="11.1931" height="5.2837" transform="rotate(90 88.2427 278.061)" fill="black"/>
<path d="M85.3608 286.334L89.9367 295.459L80.785 295.459L85.3608 286.334Z" fill="white"/>
<rect x="88.2427" y="294.607" width="11.1931" height="5.2837" transform="rotate(90 88.2427 294.607)" fill="white"/>
<path d="M85.3608 302.88L89.9367 312.005L80.785 312.005L85.3608 302.88Z" fill="black"/>
<rect x="88.2427" y="311.153" width="11.1931" height="5.2837" transform="rotate(90 88.2427 311.153)" fill="black"/>
<path d="M85.3608 236.607L89.9367 245.732L80.785 245.732L85.3608 236.607Z" fill="black"/>
<rect x="88.2427" y="244.881" width="11.1931" height="5.2837" transform="rotate(90 88.2427 244.881)" fill="black"/>
<path d="M85.3608 253.153L89.9367 262.278L80.785 262.278L85.3608 253.153Z" fill="white"/>
<rect x="88.2432" y="261.427" width="11.1931" height="5.2837" transform="rotate(90 88.2432 261.427)" fill="white"/>
<path d="M85.3608 269.7L89.9367 278.825L80.785 278.825L85.3608 269.7Z" fill="black"/>
<rect x="88.2427" y="277.973" width="11.1931" height="5.2837" transform="rotate(90 88.2427 277.973)" fill="black"/>
<path d="M85.3608 286.246L89.9367 295.371L80.785 295.371L85.3608 286.246Z" fill="white"/>
<rect x="88.2427" y="294.52" width="11.1931" height="5.2837" transform="rotate(90 88.2427 294.52)" fill="white"/>
<path d="M85.3608 302.793L89.9367 311.918L80.785 311.918L85.3608 302.793Z" fill="black"/>
<rect x="88.2427" y="311.066" width="11.1931" height="5.2837" transform="rotate(90 88.2427 311.066)" fill="black"/>
<path d="M85.3608 319.339L89.9367 328.464L80.785 328.464L85.3608 319.339Z" fill="white"/>
<rect x="88.2427" y="327.612" width="11.1931" height="5.2837" transform="rotate(90 88.2427 327.612)" fill="white"/>
<path d="M85.3608 335.886L89.9367 345.011L80.785 345.011L85.3608 335.886Z" fill="black"/>
<rect x="88.2427" y="344.158" width="11.1931" height="5.2837" transform="rotate(90 88.2427 344.158)" fill="black"/>
</svg>
