<svg width="1901" height="23" viewBox="0 0 1901 23" fill="none" xmlns="http://www.w3.org/2000/svg">
<rect x="1886" y="17.0002" width="23" height="11" transform="rotate(180 1886 17.0002)" fill="white"/>
<rect x="1852" y="17.0002" width="23" height="11" transform="rotate(180 1852 17.0002)" fill="black"/>
<path d="M1901 11.5002L1882.25 21.4595L1882.25 1.54095L1901 11.5002Z" fill="white"/>
<path d="M1867 11.5004L1848.25 21.4597L1848.25 1.54108L1867 11.5004Z" fill="black"/>
<rect x="1818" y="17.0002" width="23" height="11" transform="rotate(180 1818 17.0002)" fill="white"/>
<rect x="1784" y="17.0002" width="23" height="11" transform="rotate(180 1784 17.0002)" fill="black"/>
<path d="M1833 11.5002L1814.25 21.4595L1814.25 1.54095L1833 11.5002Z" fill="white"/>
<path d="M1799 11.5004L1780.25 21.4597L1780.25 1.54108L1799 11.5004Z" fill="black"/>
<rect x="1751" y="17.0002" width="23" height="11" transform="rotate(180 1751 17.0002)" fill="white"/>
<rect x="1717" y="17.0002" width="23" height="11" transform="rotate(180 1717 17.0002)" fill="black"/>
<path d="M1766 11.5002L1747.25 21.4595L1747.25 1.54095L1766 11.5002Z" fill="white"/>
<path d="M1732 11.5004L1713.25 21.4597L1713.25 1.54108L1732 11.5004Z" fill="black"/>
<rect x="1683" y="17.0002" width="23" height="11" transform="rotate(180 1683 17.0002)" fill="white"/>
<rect x="1649" y="17.0002" width="23" height="11" transform="rotate(180 1649 17.0002)" fill="black"/>
<path d="M1698 11.5002L1679.25 21.4595L1679.25 1.54095L1698 11.5002Z" fill="white"/>
<path d="M1664 11.5004L1645.25 21.4597L1645.25 1.54108L1664 11.5004Z" fill="black"/>
<rect x="1615" y="17.0002" width="23" height="11" transform="rotate(180 1615 17.0002)" fill="white"/>
<rect x="1581" y="17.0002" width="23" height="11" transform="rotate(180 1581 17.0002)" fill="black"/>
<path d="M1630 11.5002L1611.25 21.4595L1611.25 1.54095L1630 11.5002Z" fill="white"/>
<path d="M1596 11.5004L1577.25 21.4597L1577.25 1.54108L1596 11.5004Z" fill="black"/>
<rect x="1547" y="17.0002" width="23" height="11" transform="rotate(180 1547 17.0002)" fill="white"/>
<rect x="1513" y="17.0002" width="23" height="11" transform="rotate(180 1513 17.0002)" fill="black"/>
<path d="M1562 11.5002L1543.25 21.4595L1543.25 1.54095L1562 11.5002Z" fill="white"/>
<path d="M1528 11.5004L1509.25 21.4597L1509.25 1.54108L1528 11.5004Z" fill="black"/>
<rect x="1479" y="17.0002" width="23" height="11" transform="rotate(180 1479 17.0002)" fill="white"/>
<rect x="1445" y="17.0002" width="23" height="11" transform="rotate(180 1445 17.0002)" fill="black"/>
<path d="M1494 11.5002L1475.25 21.4595L1475.25 1.54095L1494 11.5002Z" fill="white"/>
<path d="M1460 11.5004L1441.25 21.4597L1441.25 1.54108L1460 11.5004Z" fill="black"/>
<rect x="1411" y="17.0002" width="23" height="11" transform="rotate(180 1411 17.0002)" fill="white"/>
<rect x="1377" y="17.0002" width="23" height="11" transform="rotate(180 1377 17.0002)" fill="black"/>
<path d="M1426 11.5002L1407.25 21.4595L1407.25 1.54095L1426 11.5002Z" fill="white"/>
<path d="M1392 11.5004L1373.25 21.4597L1373.25 1.54108L1392 11.5004Z" fill="black"/>
<rect x="1344" y="17.0002" width="23" height="11" transform="rotate(180 1344 17.0002)" fill="white"/>
<rect x="1310" y="17.0002" width="23" height="11" transform="rotate(180 1310 17.0002)" fill="black"/>
<path d="M1359 11.5002L1340.25 21.4595L1340.25 1.54095L1359 11.5002Z" fill="white"/>
<path d="M1325 11.5004L1306.25 21.4597L1306.25 1.54108L1325 11.5004Z" fill="black"/>
<rect x="1276" y="17.0002" width="23" height="11" transform="rotate(180 1276 17.0002)" fill="white"/>
<rect x="1242" y="17.0002" width="23" height="11" transform="rotate(180 1242 17.0002)" fill="black"/>
<path d="M1291 11.5002L1272.25 21.4595L1272.25 1.54095L1291 11.5002Z" fill="white"/>
<path d="M1257 11.5004L1238.25 21.4597L1238.25 1.54108L1257 11.5004Z" fill="black"/>
<rect x="1208" y="17.0002" width="23" height="11" transform="rotate(180 1208 17.0002)" fill="white"/>
<rect x="1174" y="17.0002" width="23" height="11" transform="rotate(180 1174 17.0002)" fill="black"/>
<path d="M1223 11.5002L1204.25 21.4595L1204.25 1.54095L1223 11.5002Z" fill="white"/>
<path d="M1189 11.5004L1170.25 21.4597L1170.25 1.54108L1189 11.5004Z" fill="black"/>
<rect x="1140" y="17.0002" width="23" height="11" transform="rotate(180 1140 17.0002)" fill="white"/>
<rect x="1106" y="17.0002" width="23" height="11" transform="rotate(180 1106 17.0002)" fill="black"/>
<path d="M1155 11.5002L1136.25 21.4595L1136.25 1.54095L1155 11.5002Z" fill="white"/>
<path d="M1121 11.5004L1102.25 21.4597L1102.25 1.54108L1121 11.5004Z" fill="black"/>
<rect x="1073" y="17.0002" width="23" height="11" transform="rotate(180 1073 17.0002)" fill="white"/>
<rect x="1039" y="17.0002" width="23" height="11" transform="rotate(180 1039 17.0002)" fill="black"/>
<path d="M1088 11.5002L1069.25 21.4595L1069.25 1.54095L1088 11.5002Z" fill="white"/>
<path d="M1054 11.5004L1035.25 21.4597L1035.25 1.54108L1054 11.5004Z" fill="black"/>
<rect x="1005" y="17.0002" width="23" height="11" transform="rotate(180 1005 17.0002)" fill="white"/>
<rect x="971" y="17.0002" width="23" height="11" transform="rotate(180 971 17.0002)" fill="black"/>
<path d="M1020 11.5002L1001.25 21.4595L1001.25 1.54095L1020 11.5002Z" fill="white"/>
<path d="M986 11.5004L967.25 21.4597L967.25 1.54108L986 11.5004Z" fill="black"/>
<rect x="938" y="17.0002" width="23" height="11" transform="rotate(180 938 17.0002)" fill="white"/>
<rect x="904" y="17.0002" width="23" height="11" transform="rotate(180 904 17.0002)" fill="black"/>
<path d="M953 11.5002L934.25 21.4595L934.25 1.54095L953 11.5002Z" fill="white"/>
<path d="M919 11.5004L900.25 21.4597L900.25 1.54108L919 11.5004Z" fill="black"/>
<rect x="870" y="17.0002" width="23" height="11" transform="rotate(180 870 17.0002)" fill="white"/>
<rect x="836" y="17.0002" width="23" height="11" transform="rotate(180 836 17.0002)" fill="black"/>
<path d="M885 11.5002L866.25 21.4595L866.25 1.54095L885 11.5002Z" fill="white"/>
<path d="M851 11.5004L832.25 21.4597L832.25 1.54108L851 11.5004Z" fill="black"/>
<rect x="802" y="17.0002" width="23" height="11" transform="rotate(180 802 17.0002)" fill="white"/>
<rect x="768" y="17.0002" width="23" height="11" transform="rotate(180 768 17.0002)" fill="black"/>
<path d="M817 11.5002L798.25 21.4595L798.25 1.54095L817 11.5002Z" fill="white"/>
<path d="M783 11.5004L764.25 21.4597L764.25 1.54108L783 11.5004Z" fill="black"/>
<rect x="734" y="17.0002" width="23" height="11" transform="rotate(180 734 17.0002)" fill="white"/>
<rect x="700" y="17.0002" width="23" height="11" transform="rotate(180 700 17.0002)" fill="black"/>
<path d="M749 11.5002L730.25 21.4595L730.25 1.54095L749 11.5002Z" fill="white"/>
<path d="M715 11.5004L696.25 21.4597L696.25 1.54108L715 11.5004Z" fill="black"/>
<rect x="667" y="17.0002" width="23" height="11" transform="rotate(180 667 17.0002)" fill="white"/>
<rect x="633" y="17.0002" width="23" height="11" transform="rotate(180 633 17.0002)" fill="black"/>
<path d="M682 11.5002L663.25 21.4595L663.25 1.54095L682 11.5002Z" fill="white"/>
<path d="M648 11.5004L629.25 21.4597L629.25 1.54108L648 11.5004Z" fill="black"/>
<rect x="599" y="17.0002" width="23" height="11" transform="rotate(180 599 17.0002)" fill="white"/>
<rect x="565" y="17.0002" width="23" height="11" transform="rotate(180 565 17.0002)" fill="black"/>
<path d="M614 11.5002L595.25 21.4595L595.25 1.54095L614 11.5002Z" fill="white"/>
<path d="M580 11.5004L561.25 21.4597L561.25 1.54108L580 11.5004Z" fill="black"/>
<rect x="531" y="17.0002" width="23" height="11" transform="rotate(180 531 17.0002)" fill="white"/>
<rect x="497" y="17.0002" width="23" height="11" transform="rotate(180 497 17.0002)" fill="black"/>
<path d="M546 11.5002L527.25 21.4595L527.25 1.54095L546 11.5002Z" fill="white"/>
<path d="M512 11.5004L493.25 21.4597L493.25 1.54108L512 11.5004Z" fill="black"/>
<rect x="463" y="17.0002" width="23" height="11" transform="rotate(180 463 17.0002)" fill="white"/>
<rect x="429" y="17.0002" width="23" height="11" transform="rotate(180 429 17.0002)" fill="black"/>
<path d="M478 11.5002L459.25 21.4595L459.25 1.54095L478 11.5002Z" fill="white"/>
<path d="M444 11.5004L425.25 21.4597L425.25 1.54108L444 11.5004Z" fill="black"/>
<rect x="396" y="17.0002" width="23" height="11" transform="rotate(180 396 17.0002)" fill="white"/>
<rect x="362" y="17.0002" width="23" height="11" transform="rotate(180 362 17.0002)" fill="black"/>
<path d="M411 11.5002L392.25 21.4595L392.25 1.54095L411 11.5002Z" fill="white"/>
<path d="M377 11.5004L358.25 21.4597L358.25 1.54108L377 11.5004Z" fill="black"/>
<rect x="328" y="17.0002" width="23" height="11" transform="rotate(180 328 17.0002)" fill="white"/>
<rect x="294" y="17.0002" width="23" height="11" transform="rotate(180 294 17.0002)" fill="black"/>
<path d="M343 11.5002L324.25 21.4595L324.25 1.54095L343 11.5002Z" fill="white"/>
<path d="M309 11.5004L290.25 21.4597L290.25 1.54108L309 11.5004Z" fill="black"/>
<rect x="260" y="17.0002" width="23" height="11" transform="rotate(180 260 17.0002)" fill="white"/>
<rect x="226" y="17.0002" width="23" height="11" transform="rotate(180 226 17.0002)" fill="black"/>
<path d="M275 11.5002L256.25 21.4595L256.25 1.54095L275 11.5002Z" fill="white"/>
<path d="M241 11.5004L222.25 21.4597L222.25 1.54108L241 11.5004Z" fill="black"/>
<rect x="192" y="17.0002" width="23" height="11" transform="rotate(180 192 17.0002)" fill="white"/>
<rect x="158" y="17.0002" width="23" height="11" transform="rotate(180 158 17.0002)" fill="black"/>
<path d="M207 11.5002L188.25 21.4595L188.25 1.54095L207 11.5002Z" fill="white"/>
<path d="M173 11.5004L154.25 21.4597L154.25 1.54108L173 11.5004Z" fill="black"/>
<rect x="125" y="17.0002" width="23" height="11" transform="rotate(180 125 17.0002)" fill="white"/>
<rect x="91" y="17.0002" width="23" height="11" transform="rotate(180 91 17.0002)" fill="black"/>
<path d="M140 11.5002L121.25 21.4595L121.25 1.54095L140 11.5002Z" fill="white"/>
<path d="M106 11.5004L87.25 21.4597L87.25 1.54108L106 11.5004Z" fill="black"/>
<rect x="57" y="17.0002" width="23" height="11" transform="rotate(180 57 17.0002)" fill="white"/>
<rect x="23" y="17.0002" width="23" height="11" transform="rotate(180 23 17.0002)" fill="black"/>
<path d="M72 11.5002L53.25 21.4595L53.25 1.54095L72 11.5002Z" fill="white"/>
<path d="M38 11.5004L19.25 21.4597L19.25 1.54108L38 11.5004Z" fill="black"/>
</svg>
