<svg width="805" height="11" viewBox="0 0 805 11" fill="none" xmlns="http://www.w3.org/2000/svg">
<rect x="34" width="23" height="11" fill="white"/>
<rect x="68" width="23" height="11" fill="white"/>
<rect width="23" height="11" fill="white"/>
<rect x="136" width="23" height="11" fill="white"/>
<rect x="170" width="23" height="11" fill="white"/>
<rect x="102" width="23" height="11" fill="white"/>
<rect x="238" width="23" height="11" fill="white"/>
<rect x="272" width="23" height="11" fill="white"/>
<rect x="204" width="23" height="11" fill="white"/>
<rect x="340" width="23" height="11" fill="white"/>
<rect x="374" width="23" height="11" fill="white"/>
<rect x="306" width="23" height="11" fill="white"/>
<rect x="442" width="23" height="11" fill="white"/>
<rect x="476" width="23" height="11" fill="white"/>
<rect x="408" width="23" height="11" fill="white"/>
<rect x="544" width="23" height="11" fill="white"/>
<rect x="578" width="23" height="11" fill="white"/>
<rect x="510" width="23" height="11" fill="white"/>
<rect x="646" width="23" height="11" fill="white"/>
<rect x="680" width="23" height="11" fill="white"/>
<rect x="612" width="23" height="11" fill="white"/>
<rect x="748" width="23" height="11" fill="white"/>
<rect x="782" width="23" height="11" fill="white"/>
<rect x="714" width="23" height="11" fill="white"/>
</svg>
