<svg width="509" height="184" viewBox="0 0 509 184" fill="none" xmlns="http://www.w3.org/2000/svg">
<path d="M104.167 31.323L88.9215 -0.000122505L73.6758 31.323L39.6838 36.3953L64.2534 60.8263L113.59 60.8263L138.159 36.3953L104.167 31.323Z" fill="black"/>
<path d="M73.6761 152.677L88.9218 184L104.167 152.677L138.159 147.604L113.59 123.173L64.2537 123.173L39.6841 147.604L73.6761 152.677Z" fill="white"/>
<path d="M147.568 107.774L177.843 92.0002L147.568 76.2267L142.665 41.058L119.051 66.4781L119.051 117.522L142.665 142.942L147.568 107.774Z" fill="black"/>
<path d="M30.275 76.2264L-2.15358e-06 91.9998L30.275 107.773L35.1776 142.942L58.7912 117.522L58.7912 66.4778L35.1776 41.0577L30.275 76.2264Z" fill="white"/>
<path d="M217.263 27.2358C220.268 27.2358 223.045 27.9871 225.593 29.4898C228.141 30.9925 230.166 33.0178 231.669 35.5658C233.171 38.1138 233.923 40.8905 233.923 43.8958V52.7158V67.3178V79.3718C233.923 82.3118 233.171 85.0558 231.669 87.6038C230.166 90.1518 228.141 92.1771 225.593 93.6798C223.045 95.1171 220.268 95.8358 217.263 95.8358H210.305C207.299 95.8358 204.523 95.1171 201.975 93.6798C199.492 92.1771 197.532 90.1518 196.095 87.6038C194.657 85.0558 193.939 82.3118 193.939 79.3718V67.3178V52.7158V43.8958C193.939 40.8905 194.657 38.1138 196.095 35.5658C197.532 33.0178 199.492 30.9925 201.975 29.4898C204.523 27.9871 207.299 27.2358 210.305 27.2358H217.263ZM221.379 45.9538C221.379 44.2551 220.758 42.8178 219.517 41.6418C218.341 40.4005 216.903 39.7798 215.205 39.7798H212.363C210.729 39.7798 209.292 40.4005 208.051 41.6418C206.809 42.8178 206.189 44.2551 206.189 45.9538V52.7158V77.1178C206.189 78.7511 206.809 80.1885 208.051 81.4298C209.292 82.6711 210.729 83.2918 212.363 83.2918H215.205C216.903 83.2918 218.341 82.6711 219.517 81.4298C220.758 80.1885 221.379 78.7511 221.379 77.1178V67.3178V45.9538ZM269.586 27.2358H281.346V94.7578H269.586V94.5618L269.39 94.7578L253.416 52.1278V94.7578H241.754V38.9958H239.206V27.2358H241.754H253.416H256.748L269.586 61.4378V27.2358ZM300.983 27.2358V83.8798H321.073V95.8358H300.983H288.929H286.675V83.8798H288.929V27.2358H300.983ZM366.474 27.2358V60.6538C366.474 64.7045 365.102 68.2325 362.358 71.2378C359.679 74.1778 356.347 75.8765 352.362 76.3338V95.8358H340.504V76.3338C336.519 75.8765 333.154 74.1778 330.41 71.2378C327.731 68.2325 326.392 64.7045 326.392 60.6538V27.2358H338.25V58.5958C338.25 60.2291 338.805 61.6338 339.916 62.8098C341.092 63.9858 342.497 64.5738 344.13 64.5738H345.208H347.952H348.834C350.402 64.5738 351.741 63.9858 352.852 62.8098C354.028 61.6338 354.616 60.2291 354.616 58.5958V27.2358H366.474ZM217.263 103.236C220.268 103.236 223.045 103.987 225.593 105.49C228.141 106.992 230.166 109.018 231.669 111.566C233.171 114.114 233.923 116.89 233.923 119.896V128.716V143.318V155.372C233.923 158.312 233.171 161.056 231.669 163.604C230.166 166.152 228.141 168.177 225.593 169.68C223.045 171.117 220.268 171.836 217.263 171.836H210.305C207.299 171.836 204.523 171.117 201.975 169.68C199.492 168.177 197.532 166.152 196.095 163.604C194.657 161.056 193.939 158.312 193.939 155.372V143.318V128.716V119.896C193.939 116.89 194.657 114.114 196.095 111.566C197.532 109.018 199.492 106.992 201.975 105.49C204.523 103.987 207.299 103.236 210.305 103.236H217.263ZM221.379 121.954C221.379 120.255 220.758 118.818 219.517 117.642C218.341 116.4 216.903 115.78 215.205 115.78H212.363C210.729 115.78 209.292 116.4 208.051 117.642C206.809 118.818 206.189 120.255 206.189 121.954V128.716V153.118C206.189 154.751 206.809 156.188 208.051 157.43C209.292 158.671 210.729 159.292 212.363 159.292H215.205C216.903 159.292 218.341 158.671 219.517 157.43C220.758 156.188 221.379 154.751 221.379 153.118V143.318V121.954ZM271.546 103.236H283.306V170.758H271.546V170.562L271.35 170.758L255.376 128.128V170.758H243.714V114.996H241.166V103.236H243.714H255.376H258.708L271.546 137.438V103.236ZM293.045 149.492H290.595V137.536H293.045V103.236H295.103H305.001H333.225V115.192H305.001V137.536H328.815V149.492H305.001V159.88H333.225V171.836H305.001H293.045V149.492ZM408.024 103.236V155.372C408.024 158.377 407.273 161.154 405.77 163.702C404.333 166.184 402.34 168.177 399.792 169.68C397.31 171.117 394.566 171.836 391.56 171.836H384.798C380.813 171.836 377.383 170.692 374.508 168.406C373.136 169.516 371.536 170.366 369.706 170.954C367.877 171.542 366.08 171.836 364.316 171.836H356.966C353.961 171.836 351.184 171.117 348.636 169.68C346.154 168.177 344.161 166.184 342.658 163.702C341.221 161.154 340.502 158.377 340.502 155.372V103.236H353.046V153.118C353.046 154.816 353.634 156.286 354.81 157.528C356.052 158.769 357.522 159.39 359.22 159.39H362.062C363.761 159.39 365.231 158.769 366.472 157.528C367.714 156.286 368.334 154.816 368.334 153.118V119.7H380.78V153.118C380.78 154.816 381.401 156.286 382.642 157.528C383.884 158.769 385.354 159.39 387.052 159.39H389.306C391.005 159.39 392.442 158.769 393.618 157.528C394.86 156.286 395.48 154.816 395.48 153.118V103.236H408.024ZM415.292 152.53V140.574H417.644V119.798C417.644 116.792 418.396 114.016 419.898 111.468C421.401 108.92 423.394 106.927 425.876 105.49C428.424 103.987 431.201 103.236 434.206 103.236H441.36C444.366 103.236 447.142 103.987 449.69 105.49C452.238 106.927 454.231 108.92 455.668 111.468C457.171 114.016 457.922 116.792 457.922 119.798V172.032H445.378V152.53H430.286V172.032H417.644V152.53H415.292ZM445.378 140.574V122.052C445.378 120.353 444.758 118.883 443.516 117.642C442.275 116.4 440.805 115.78 439.106 115.78H436.46C434.762 115.78 433.292 116.4 432.05 117.642C430.874 118.883 430.286 120.353 430.286 122.052V140.574H445.378ZM505.282 103.236V136.654C505.282 140.704 503.91 144.232 501.166 147.238C498.487 150.178 495.155 151.876 491.17 152.334V171.836H479.312V152.334C475.326 151.876 471.962 150.178 469.218 147.238C466.539 144.232 465.2 140.704 465.2 136.654V103.236H477.058V134.596C477.058 136.229 477.613 137.634 478.724 138.81C479.9 139.986 481.304 140.574 482.938 140.574H484.016H486.76H487.642C489.21 140.574 490.549 139.986 491.66 138.81C492.836 137.634 493.424 136.229 493.424 134.596V103.236H505.282Z" fill="white"/>
</svg>
